<svg id="Layer_1" data-name="Layer 1" xmlns="http://www.w3.org/2000/svg" viewBox="0 0 494.64 310.42"><defs><style>.cls-1{fill:#ec6608;}.cls-2{fill:#f6e7cb;}</style></defs><polygon class="cls-1" points="424.5 79.69 435.44 79.69 429.97 74.45 424.5 79.69"/><polygon class="cls-1" points="415.71 88.13 426.24 98.22 433.7 98.22 444.23 88.13 437.43 81.6 422.51 81.6 415.71 88.13"/><polygon class="cls-1" points="337.51 73.13 344.36 79.69 359.19 79.69 366.04 73.13 355.55 63.08 348 63.08 337.51 73.13"/><polygon class="cls-1" points="384.43 88.13 394.96 98.22 402.42 98.22 412.95 88.13 406.15 81.6 391.24 81.6 384.43 88.13"/><polygon class="cls-1" points="461.25 101.8 462.99 100.13 459.5 100.13 461.25 101.8"/><path class="cls-1" d="M471,98.22c-.07-1-.15-1.94-.24-2.9l-3,2.9Z"/><polygon class="cls-1" points="328.68 81.6 321.87 88.13 332.4 98.22 339.87 98.22 350.4 88.13 343.59 81.6 328.68 81.6"/><path class="cls-1" d="M466.46,76.81q-1-2.69-2.17-5.27l-1.67,1.59Z"/><polygon class="cls-1" points="443.82 61.17 447.39 61.17 445.61 59.46 443.82 61.17"/><polygon class="cls-1" points="389.58 63.08 398.69 71.81 407.8 63.08 389.58 63.08"/><polygon class="cls-1" points="349.99 61.17 353.56 61.17 351.77 59.46 349.99 61.17"/><polygon class="cls-1" points="404.16 79.69 398.69 74.45 393.22 79.69 404.16 79.69"/><polygon class="cls-1" points="353.15 88.13 363.68 98.22 371.15 98.22 381.67 88.13 374.87 81.6 359.96 81.6 353.15 88.13"/><polygon class="cls-1" points="361.95 79.69 372.88 79.69 367.41 74.45 361.95 79.69"/><path class="cls-1" d="M471.17,103.3c0-1.06,0-2.12-.07-3.17h-5.35l-3.13,3,8.17,7.83Q471.17,107.17,471.17,103.3Z"/><polygon class="cls-1" points="369.16 100.13 365.67 100.13 367.41 101.8 369.16 100.13"/><polygon class="cls-1" points="383.05 86.81 388.48 81.6 377.63 81.6 383.05 86.81"/><polygon class="cls-1" points="373.9 98.22 392.2 98.22 383.05 89.45 373.9 98.22"/><polygon class="cls-1" points="351.77 86.81 357.2 81.6 346.35 81.6 351.77 86.81"/><polygon class="cls-1" points="342.62 98.22 360.92 98.22 351.77 89.45 342.62 98.22"/><polygon class="cls-1" points="455.78 79.69 466.71 79.69 461.25 74.45 455.78 79.69"/><polygon class="cls-1" points="400.43 100.13 396.95 100.13 398.69 101.8 400.43 100.13"/><polygon class="cls-1" points="445.61 86.81 451.04 81.6 440.18 81.6 445.61 86.81"/><polygon class="cls-1" points="414.33 86.81 419.76 81.6 408.9 81.6 414.33 86.81"/><path class="cls-1" d="M447,88.13l10.52,10.09H465L470.47,93A74.92,74.92,0,0,0,468,81.6H453.79Z"/><polygon class="cls-1" points="436.46 98.22 454.76 98.22 445.61 89.45 436.46 98.22"/><polygon class="cls-1" points="431.71 100.13 428.23 100.13 429.97 101.8 431.71 100.13"/><polygon class="cls-1" points="405.18 98.22 423.48 98.22 414.33 89.45 405.18 98.22"/><polygon class="cls-1" points="431.35 73.13 438.19 79.69 453.02 79.69 459.87 73.13 449.38 63.08 441.83 63.08 431.35 73.13"/><polygon class="cls-1" points="412.95 148.1 401.56 137.18 395.82 137.18 384.43 148.1 390.37 153.79 407.01 153.79 412.95 148.1"/><polygon class="cls-1" points="405.02 155.7 392.36 155.7 398.69 161.77 405.02 155.7"/><polygon class="cls-1" points="373.75 155.7 361.08 155.7 367.41 161.77 373.75 155.7"/><polygon class="cls-1" points="335.26 135.27 337.01 135.27 336.13 134.43 335.26 135.27"/><path class="cls-1" d="M469.63,118.65H447.55l13.7,13.14,6.68-6.41Q468.92,122.07,469.63,118.65Z"/><polygon class="cls-1" points="460.37 135.27 462.13 135.27 461.25 134.43 460.37 135.27"/><polygon class="cls-1" points="444.23 148.1 432.84 137.18 427.1 137.18 415.71 148.1 421.65 153.79 438.29 153.79 444.23 148.1"/><polygon class="cls-1" points="428.59 163.09 420.88 155.7 407.78 155.7 400.07 163.09 409.69 172.32 418.97 172.32 428.59 163.09"/><polygon class="cls-1" points="397.31 163.09 389.6 155.7 376.5 155.7 368.79 163.09 378.41 172.32 387.69 172.32 397.31 163.09"/><polygon class="cls-1" points="436.3 155.7 423.64 155.7 429.97 161.77 436.3 155.7"/><polygon class="cls-1" points="414.33 176.77 416.98 174.23 411.68 174.23 414.33 176.77"/><polygon class="cls-1" points="459.87 133.11 445.61 119.44 431.35 133.11 433.6 135.27 457.61 135.27 459.87 133.11"/><polygon class="cls-1" points="385.7 174.23 380.4 174.23 383.05 176.77 385.7 174.23"/><polygon class="cls-1" points="381.67 148.1 370.28 137.18 364.55 137.18 353.15 148.1 359.09 153.79 375.73 153.79 381.67 148.1"/><polygon class="cls-1" points="366.04 133.11 351.77 119.44 337.51 133.11 339.77 135.27 363.78 135.27 366.04 133.11"/><polygon class="cls-1" points="366.53 135.27 368.29 135.27 367.41 134.43 366.53 135.27"/><polygon class="cls-1" points="353.71 118.65 367.41 131.79 381.11 118.65 353.71 118.65"/><polygon class="cls-1" points="322.44 118.65 336.13 131.79 349.83 118.65 322.44 118.65"/><polygon class="cls-1" points="393.07 137.18 373.04 137.18 383.05 146.78 393.07 137.18"/><polygon class="cls-1" points="361.79 137.18 341.76 137.18 351.77 146.78 361.79 137.18"/><polygon class="cls-1" points="424.35 137.18 404.31 137.18 414.33 146.78 424.35 137.18"/><polygon class="cls-1" points="416.27 118.65 429.97 131.79 443.67 118.65 416.27 118.65"/><polygon class="cls-1" points="397.31 133.11 383.05 119.44 368.79 133.11 371.05 135.27 395.06 135.27 397.31 133.11"/><polygon class="cls-1" points="429.09 135.27 430.85 135.27 429.97 134.43 429.09 135.27"/><polygon class="cls-1" points="428.59 133.11 414.33 119.44 400.07 133.11 402.32 135.27 426.33 135.27 428.59 133.11"/><polygon class="cls-1" points="397.81 135.27 399.57 135.27 398.69 134.43 397.81 135.27"/><polygon class="cls-1" points="384.99 118.65 398.69 131.79 412.39 118.65 384.99 118.65"/><polygon class="cls-1" points="455.62 137.18 435.59 137.18 445.61 146.78 455.62 137.18"/><path class="cls-1" d="M330.61,61.17h16.62l3.17-3-9.69-9.29A76.6,76.6,0,0,0,330.61,61.17Z"/><polygon class="cls-1" points="383.05 149.42 378.49 153.79 387.61 153.79 383.05 149.42"/><polygon class="cls-1" points="356.31 61.17 378.51 61.17 381.67 58.14 367.5 44.55 367.32 44.55 353.15 58.14 356.31 61.17"/><path class="cls-1" d="M342.08,47.53l9.69,9.29,12.8-12.27H345.44Q343.72,46,342.08,47.53Z"/><polygon class="cls-1" points="351.77 149.42 347.21 153.79 356.33 153.79 351.77 149.42"/><path class="cls-1" d="M350.4,148.1,339,137.18h-5.73l-4.88,4.68A76.82,76.82,0,0,0,337,153.8h7.47Z"/><path class="cls-1" d="M338.72,155.7c.59.63,1.19,1.26,1.8,1.87l2-1.87Z"/><path class="cls-1" d="M367.41,41.82l14.26-13.67-.31-.3a76.11,76.11,0,0,0-21.21,7Z"/><path class="cls-1" d="M450.15,61.17h8.39a75.85,75.85,0,0,0-6.2-8.16L447,58.14Z"/><path class="cls-1" d="M466.66,129.24l-4,3.87,1.78,1.7Q465.65,132.08,466.66,129.24Z"/><path class="cls-1" d="M445.61,56.82l5.46-5.24a76.41,76.41,0,0,0-7.36-7h-10.9Z"/><path class="cls-1" d="M418,30.37l12,11.45,4.25-4.07A76.37,76.37,0,0,0,418,30.37Z"/><polygon class="cls-1" points="429.88 44.55 415.71 58.14 418.87 61.17 441.07 61.17 444.23 58.14 430.06 44.55 429.88 44.55"/><path class="cls-1" d="M334.76,133.11,320.5,119.43l-.67.64a75.54,75.54,0,0,0,5.13,15.2h7.54Z"/><path class="cls-1" d="M398.69,41.82l13.61-13a77.35,77.35,0,0,0-26.94-1.51l-.93.89Z"/><path class="cls-1" d="M450.43,155.7H439.06l-7.71,7.39,4.76,4.57A77.15,77.15,0,0,0,450.43,155.7Z"/><path class="cls-1" d="M381.67,178.09l-4-3.86h-12A75.9,75.9,0,0,0,381,178.7Z"/><polygon class="cls-1" points="398.69 164.41 390.44 172.32 406.94 172.32 398.69 164.41"/><path class="cls-1" d="M434.45,168.71,430,164.42l-8.25,7.9h6.1Q431.23,170.67,434.45,168.71Z"/><path class="cls-1" d="M419.73,174.23l-2.28,2.19c2.06-.65,4.09-1.38,6.07-2.19Z"/><polygon class="cls-1" points="414.33 149.42 409.77 153.79 418.89 153.79 414.33 149.42"/><path class="cls-1" d="M412.6,177.75l-3.67-3.52H388.46l-4,3.86,1.36,1.3a77.13,77.13,0,0,0,26.81-1.64Z"/><path class="cls-1" d="M441.34,42.64c-1.76-1.35-3.58-2.64-5.45-3.85l-4,3.85Z"/><path class="cls-1" d="M463.28,137.18h-4.9L447,148.1l5.52,5.3A76.76,76.76,0,0,0,463.28,137.18Z"/><path class="cls-1" d="M367.41,164.42l-7.5,7.19,1.42.71h14.33Z"/><polygon class="cls-1" points="445.61 149.42 441.05 153.79 450.17 153.79 445.61 149.42"/><path class="cls-1" d="M365.51,42.64l-7.14-6.85a76.34,76.34,0,0,0-10.56,6.85Z"/><path class="cls-1" d="M358.32,155.7h-13.1l-3.33,3.2a77.4,77.4,0,0,0,16.23,11.78l7.91-7.59Z"/><polygon class="cls-1" points="398.69 104.44 385.86 116.75 411.52 116.75 398.69 104.44"/><polygon class="cls-1" points="337.88 100.13 334.39 100.13 336.13 101.8 337.88 100.13"/><polygon class="cls-1" points="383.1 116.75 397.31 103.12 394.19 100.13 371.91 100.13 368.79 103.12 383 116.75 383.1 116.75"/><polygon class="cls-1" points="367.41 104.44 354.58 116.75 380.25 116.75 367.41 104.44"/><polygon class="cls-1" points="445.66 116.75 459.87 103.12 456.75 100.13 434.47 100.13 431.35 103.12 445.56 116.75 445.66 116.75"/><polygon class="cls-1" points="351.82 116.75 366.04 103.12 362.91 100.13 340.63 100.13 337.51 103.12 351.72 116.75 351.82 116.75"/><polygon class="cls-1" points="414.38 116.75 428.59 103.12 425.47 100.13 403.19 100.13 400.07 103.12 414.28 116.75 414.38 116.75"/><polygon class="cls-1" points="429.97 104.44 417.13 116.75 442.8 116.75 429.97 104.44"/><polygon class="cls-1" points="336.13 104.44 323.3 116.75 348.97 116.75 336.13 104.44"/><path class="cls-1" d="M325.87,137.18c.49,1,1,2,1.54,3l3.1-3Z"/><path class="cls-1" d="M320.5,89.45,319,90.89c-.4,2.41-.67,4.85-.84,7.33h11.5Z"/><path class="cls-1" d="M325.92,81.6H321.1c-.45,1.53-.85,3.07-1.21,4.63l.61.58Z"/><path class="cls-1" d="M320.55,116.75l14.21-13.63-3.12-3H318.05c0,1.05-.07,2.11-.07,3.17a76.35,76.35,0,0,0,.94,12l1.53,1.47Z"/><path class="cls-1" d="M321.69,79.69h6.22l6.85-6.56-7.21-6.91A76.23,76.23,0,0,0,321.69,79.69Z"/><path class="cls-1" d="M470.51,113.33l-9.26-8.89-12.84,12.31H470C470.19,115.61,470.36,114.47,470.51,113.33Z"/><polygon class="cls-1" points="330.67 79.69 341.6 79.69 336.13 74.45 330.67 79.69"/><polygon class="cls-1" points="368.79 73.13 375.63 79.69 390.47 79.69 397.31 73.13 386.82 63.08 379.28 63.08 368.79 73.13"/><polygon class="cls-1" points="384.83 61.17 383.05 59.46 381.27 61.17 384.83 61.17"/><polygon class="cls-1" points="383.05 29.47 369.31 42.65 396.79 42.65 383.05 29.47"/><path class="cls-1" d="M328.52,64.51l7.61,7.3,9.12-8.73H329.39C329.09,63.55,328.8,64,328.52,64.51Z"/><polygon class="cls-1" points="367.41 71.81 376.52 63.08 358.3 63.08 367.41 71.81"/><polygon class="cls-1" points="395.85 44.55 370.26 44.55 383.05 56.82 395.85 44.55"/><path class="cls-1" d="M461.25,71.81l2.18-2.09c-1.12-2.28-2.34-4.5-3.67-6.64h-7.62Z"/><polygon class="cls-1" points="410.56 63.08 400.07 73.13 406.91 79.69 421.75 79.69 428.59 73.13 418.1 63.08 410.56 63.08"/><polygon class="cls-1" points="398.6 44.55 384.43 58.14 387.59 61.17 409.79 61.17 412.95 58.14 398.78 44.55 398.6 44.55"/><polygon class="cls-1" points="429.97 71.81 439.08 63.08 420.86 63.08 429.97 71.81"/><polygon class="cls-1" points="412.55 61.17 416.11 61.17 414.33 59.46 412.55 61.17"/><polygon class="cls-1" points="414.33 29.47 400.59 42.65 428.07 42.65 414.33 29.47"/><polygon class="cls-1" points="401.54 44.55 414.33 56.82 427.12 44.55 401.54 44.55"/><path class="cls-2" d="M374.15,179.25c-.32,1.09-.55,2.16-.7,2.47a79.93,79.93,0,0,0-3.56,13.94,1.27,1.27,0,0,1-.29.66,12.93,12.93,0,0,0-2.71,5.94,12.82,12.82,0,0,1-1.84,3.87c-.57.84-3.15,2.32-3.23,8.76,0,3.83-1.45,12.6.82,13.27s-.75,4.55-1.14,5.21c-.53.9-3.12.35-5.49,2.7a1.22,1.22,0,0,1-.87.34,3.08,3.08,0,0,0-3.11,2.11c-.89,1.87-1.34,5.76-1.45,6.85a1.28,1.28,0,0,1-.16.49,11.4,11.4,0,0,0-1.12,5c-.21,3.92,2.51,5.46,3.7,5.52s5.12.53,5.54-3c.33-2.85.45-7,.49-9a1.25,1.25,0,0,1,1-1.2,3,3,0,0,0,1.59-.84,1.18,1.18,0,0,1,1.17-.4c1.47.34,4.66.7,6.62-1.91,2.62-3.47,3.73-9,3.77-9.07s3-.38,3.49-1.78,2.45-6.14,3.83-5.22a18.28,18.28,0,0,1,3.48,3.93c.28.42,1.34,2.86,3.28,2.75a1.24,1.24,0,0,1,1.26.83c.61,1.81.84,3.29,1.3,4.52.53,1.45,1.58,7,2.78,8.24.9,1.13.25,2.48.19,2.86a29.38,29.38,0,0,0,1,9.76,40.17,40.17,0,0,1,1.37,10.9c0,3.66.68,3,.52,4.49s-.93,8,2.7,8.55,14.17.77,14.17.77,3.44.38,3.57-2-4.13-4-6.08-4.34-8.59-1.35-8.23-5.92c.33-4,1.52-18.64,1.79-22a5.67,5.67,0,0,0-.15-1.84,12.24,12.24,0,0,1-.72-2.84c-.1-1.42,1.49-7.34-.86-10.73-.44-.64-2.32-4.14-1.61-4.48,2.36-1.16.66-6.14-1.86-10.07a.43.43,0,0,0,0-.07c-.19-.26-1.62-2.32-1.47-3.82s.05-5.82-.71-6.59.27-4.27-1.18-5.88c-1.06-1.17,1.33-14.49,3.72-16.75s4-4.63,4.53-1.79,4,11.36,6.49,14,9.1,10.78,9.1,10.78,5.16,8.29,7.66,8.43,6.2,1,6.6-.06,0-4.86-1.75-5.34a26.79,26.79,0,0,0-4.39-.58,1.25,1.25,0,0,1-1-.62l-4.12-7a1.42,1.42,0,0,1-.08-.18c-.31-.78-2.65-6.62-6.05-9.49a1.27,1.27,0,0,1-.44-.72,26.17,26.17,0,0,0-3.52-7.69,4.23,4.23,0,0,1-.66-2.56c0-.54.06-1.21,0-1.94a71.28,71.28,0,0,1-37-.16Z"/><path class="cls-2" d="M346.28,182.72a6.15,6.15,0,0,0-2.91,2.47c-.92,1.71-.84,3.87,0,4.88a1,1,0,0,0,.37.27l0,0a1.27,1.27,0,0,1,.75.9c.15.65.5,1.49,1.33,1.57,0,0,.5-.36,1,.4s.8,1.5,1.23.87,0-4,.74-4.16.43,2.33,1.36,2,.8-2.3.83-2.63.8-.43,1-1.46a2.67,2.67,0,0,0-.43-1.77,1.26,1.26,0,0,1,.16-1.6,37.44,37.44,0,0,1,5.46-4.41,33,33,0,0,0,5-3.7c-2.14-.94-4.56-2.23-6.59-3.36-3.45,3.53-7.94,8.43-8.87,9.4A1.34,1.34,0,0,1,346.28,182.72Z"/><path class="cls-2" d="M23.48,154.65v0c0-7.59,13.69-8.82,13.69-16,0-2.57-1.12-4.07-3.69-4.07-1.49,0-3.33.54-3.33,2.27,0,1.3,1.42,1.42,1.42,3.18,0,2-1.88,3.18-3.8,3.18-2.45,0-3.83-1.42-3.83-4,0-4.37,3.95-6.59,9.51-6.59h0c4.68,0,10.78,1.72,10.78,7.28,0,8.44-15.91,12.08-15.91,17.14,0,.88.72,1.15,1.49,1.15,7.63,0,12.69-5.44,14-6.86v7.21c0,1.07-.54,1.61-2,1.61H29.38C24.51,160.17,23.48,157.68,23.48,154.65Z"/><path class="cls-2" d="M46.56,146.67c0-9.59,4.83-14,10.89-14s10.93,4.37,10.93,14-4.83,14-10.93,14S46.56,156.26,46.56,146.67Zm11.73,12c2.23,0,3-3.6,2-11.85-.81-7-1.69-7.59-1.69-9.47s2.15-.69,2.15-1.57c0-.35-.58-1-2.73-1-3.87,0-4.6,3.84-3.72,12S56.72,158.71,58.29,158.71Z"/><path class="cls-2" d="M24,186.37v0c0-7.6,13.68-8.82,13.68-16,0-2.57-1.11-4.07-3.68-4.07-1.49,0-3.33.54-3.33,2.26,0,1.31,1.42,1.42,1.42,3.19,0,2-1.88,3.18-3.8,3.18-2.45,0-3.83-1.42-3.83-3.95,0-4.37,3.95-6.59,9.51-6.59h0c4.68,0,10.78,1.72,10.78,7.28,0,8.44-15.91,12.08-15.91,17.14,0,.88.72,1.15,1.49,1.15,7.63,0,12.69-5.44,14-6.86v7.21c0,1.07-.54,1.61-2,1.61H29.88C25,191.9,24,189.4,24,186.37Z"/><path class="cls-2" d="M47.1,186.37v0c0-7.6,13.68-8.82,13.68-16,0-2.57-1.11-4.07-3.68-4.07-1.49,0-3.33.54-3.33,2.26,0,1.31,1.42,1.42,1.42,3.19,0,2-1.88,3.18-3.8,3.18-2.45,0-3.83-1.42-3.83-3.95,0-4.37,3.95-6.59,9.51-6.59h0c4.68,0,10.78,1.72,10.78,7.28,0,8.44-15.91,12.08-15.91,17.14,0,.88.72,1.15,1.49,1.15,7.63,0,12.69-5.44,14-6.86v7.21c0,1.07-.54,1.61-2,1.61H53C48.13,191.9,47.1,189.4,47.1,186.37Z"/><path class="cls-2" d="M28.33,97.89V77.18c0-3.4-1-5.63-3.72-7.22l23.89-5.2v2.76c0,6.16-9.23,7.54-9.23,10.83a1.59,1.59,0,0,0,1.8,1.7c2.66,0,6.37-4.25,7.43-6,3.61-6.37,9.14-11.36,17.1-11.36,10.2,0,14.23,6.16,15.93,13.8,3.4-7.54,9.34-13.8,18.26-13.8,17.31,0,18.06,15.82,18.06,27.71v7.44c0,8.49,0,22,3.82,24.53H93.85c3.82-2.55,3.82-16,3.82-24.53V91.41c0-7.65-.64-14.76-7.43-14.76-7.33,0-7.65,10.19-7.65,18.9v2.34c0,8.49,0,22,3.82,24.53H58.59c3.83-2.55,3.83-16,3.83-24.53V91.41c0-7.65-.64-14.76-6.38-14.76S48.82,83,48.5,89.92v8c0,8.49,0,22,3.83,24.53H24.51C28.33,119.87,28.33,106.38,28.33,97.89Z"/><path class="cls-2" d="M129.73,97.89V77.18c0-3.4-1-5.63-3.72-7.22l23.89-5.2V97.89c0,8.49,0,22,3.83,24.53H125.91C129.73,119.87,129.73,106.38,129.73,97.89Zm9-59.36a12,12,0,1,1-12,12A12,12,0,0,1,138.75,38.53Z"/><path class="cls-2" d="M157.44,93.53c0-20.49,13.38-29.94,28.14-29.94,11.79,0,22.51,4.78,22.51,13.06,0,5.31-6.58,6.8-9.87,6.8-7,0-10.73-3.3-10.73-6.91,0-4.78,3.82-2,3.82-4.24,0-1.6-2.76-3.19-5.84-3.19-8.6,0-11.68,6.9-8.39,24.42,2.23,11.9,7.54,20.6,15.19,20.6a15.11,15.11,0,0,0,13.49-9h5.31c-3,11-11.79,18.37-23.79,18.37C170.82,123.48,157.44,114,157.44,93.53Z"/><path class="cls-2" d="M218.6,97.89V77.18c0-3.4-1-5.63-3.72-7.22l23.89-5.2v2.76c0,6.16-9.23,7.54-9.23,10.83a1.59,1.59,0,0,0,1.8,1.7c2.66,0,6.37-4.25,7.43-5.84,3.61-6.48,9.24-11.47,17.42-11.47h8.6V70.6c0,5.73-1.06,12.53-9.24,12.53-7,0-3.82-6.48-9-6.48-5.95,0-7.44,6.37-7.76,13.27v8c0,8.49,0,22,3.83,24.53H214.78C218.6,119.87,218.6,106.38,218.6,97.89Z"/><path class="cls-2" d="M265.85,93.53c0-20.49,13.38-29.94,29.84-29.94S325.53,73,325.53,93.53s-13.38,30-29.84,30S265.85,114,265.85,93.53Zm25.59,18.27c0,3.82-5.31.53-5.31,3.4,0,1.7,3.29,3,8.39,3,10.62,0,13.7-7.12,10.83-24.64s-8-24.42-13.06-24.42c-7,0-9.77,6.8-6.27,24.42C289,108.51,291.44,108.08,291.44,111.8Z"/><path class="cls-2" d="M101.15,192.53c-13.48,0-22.51-6.26-22.51-15.08,0-8.28,6.58-9.24,11.15-9.24,10.94,0,12,7.22,12,9.14,0,8.92-8.49,2.54-8.49,7.11,0,1.7,3.39,2.55,7.85,2.55,6.37,0,10-2.13,10-7,0-13.7-29.84-12.64-29.84-31.43,0-11.79,12.63-15.51,25.8-15.51,13.91,0,22.3,4.68,22.3,14,0,3.82-2.34,8.39-8.71,8.39-7,0-10.19-4-10.19-8.28,0-3.83,3-4,3-6.8,0-2-2.23-3.29-6.37-3.29-5,0-8.28,3.18-8.28,7.22,0,15.4,31.11,12.21,31.11,31.75,0,12.11-13.27,16.46-28.67,16.46Z"/><path class="cls-2" d="M131.84,162.8c0-20.5,13.38-30,28.14-30,11.36,0,22.08,5.52,22.93,15.29v1.17c-1.06,16.57-24.95,13.7-29.73,20.5,2.66,8,7.33,13.59,13.49,13.59a15.1,15.1,0,0,0,13.48-9h5.31c-3,11-11.78,18.37-23.78,18.37C145.22,192.74,131.84,183.29,131.84,162.8Zm12.53,5.2c2.44,0,4.56-1.7,7.32-3.93,5.84-4.56,15.3-6.79,15.72-15.4-.21-5-2.34-10.3-9.13-10.3-5.74,0-8,4.57-8,15.83,0,13-8.39,8.81-8.39,12.1C141.92,167.26,142.46,168,144.37,168Z"/><path class="cls-2" d="M188.64,162.8c0-20.5,13.38-30,29.84-30s29.84,9.45,29.84,30-13.38,29.94-29.84,29.94S188.64,183.29,188.64,162.8Zm25.59,18.26c0,3.82-5.31.53-5.31,3.4,0,1.7,3.3,3,8.39,3,10.62,0,13.7-7.11,10.83-24.63s-8-24.43-13.06-24.43c-7,0-9.77,6.8-6.26,24.43C211.79,177.77,214.23,177.35,214.23,181.06Z"/><path class="cls-2" d="M255.85,166v-7.43c0-8.5,0-22-3.82-24.53h27.82c-3.82,2.55-3.82,16-3.82,24.53V165c0,7.64.64,14.76,7.43,14.76,5.74,0,7.22-6.37,7.54-13.28v-8c0-8.5,0-22-3.82-24.53H315c-3.82,2.55-3.82,16-3.82,24.53v8.6c0,8.5,0,22,3.82,24.53H291v-2.76c0-6.16,9.24-7.54,9.24-10.83a1.59,1.59,0,0,0-1.81-1.7c-2.65,0-6.37,4.25-7.43,6-3.61,6.37-9.13,11.36-17.1,11.36C256.6,193.7,255.85,177.88,255.85,166Z"/><path class="cls-2" d="M324.13,167.15V128.82c0-3.4-1-5.63-3.72-7.22l23.89-5.21v50.76c0,8.5,0,22,3.82,24.53H320.3C324.13,189.13,324.13,175.65,324.13,167.15Z"/><path class="cls-1" d="M26.54,226.21v-5.9a2.08,2.08,0,0,0-1.06-2.05l6.8-1.48v.78c0,1.76-2.63,2.15-2.63,3.08a.45.45,0,0,0,.51.49c.76,0,1.82-1.21,2.12-1.69a5.59,5.59,0,0,1,4.87-3.24c4.92,0,5.13,4.5,5.13,7.89v2.12c0,2.41,0,6.25,1.09,7H35.45c1.09-.73,1.09-4.57,1.09-7v-1.85c0-2.17-.18-4.2-2.12-4.2-1.63,0-2.05,1.81-2.14,3.78v2.27c0,2.41,0,6.25,1.09,7H25.45C26.54,232.46,26.54,228.62,26.54,226.21Z"/><path class="cls-1" d="M45.67,226.21V215.54c0-3.27,2-3.87,5.72-3.87h3.93v1.57c0,1.57-.58,2.54-2.48,2.54-2.45,0-2.12-2.51-3.45-2.51-.39,0-.6.15-.6.54,0,.88,2.63,1.15,2.63,3v0h2.69v1.51H51.42v7.86c0,2.41,0,6.25,1.08,7H44.58C45.67,232.46,45.67,228.62,45.67,226.21Z"/><path class="cls-1" d="M57.58,227.45v-9.16h-1v-1.51c2.75,0,3.47-4.3,5.59-4.3h1.21V215c0,1.76-2.63,2.15-2.63,3.08a.45.45,0,0,0,.51.49c.76,0,1.82-1.21,2.12-1.69h2.08v1.51H63.33v8.73c0,2.48.24,4.6,2.08,4.6v1.51h-.84C58.07,233.19,57.58,231.41,57.58,227.45Z"/><path class="cls-1" d="M79.08,233.43c-3.84,0-6.41-1.78-6.41-4.29,0-2.36,1.87-2.63,3.17-2.63,3.12,0,3.42,2.05,3.42,2.6,0,2.54-2.42.72-2.42,2,0,.49,1,.73,2.24.73,1.81,0,2.84-.61,2.84-2,0-3.9-8.49-3.59-8.49-8.94,0-3.36,3.59-4.42,7.34-4.42,4,0,6.35,1.33,6.35,4a2.3,2.3,0,0,1-2.48,2.39c-2,0-2.9-1.15-2.9-2.36s.85-1.15.85-1.93c0-.57-.64-.94-1.82-.94a2.15,2.15,0,0,0-2.36,2.06c0,4.38,8.86,3.47,8.86,9,0,3.44-3.78,4.68-8.16,4.68Z"/><path class="cls-1" d="M87.82,225c0-5.84,3.81-8.53,8.49-8.53s8.5,2.69,8.5,8.53-3.81,8.52-8.5,8.52S87.82,230.8,87.82,225Zm7.28,5.2c0,1.08-1.51.15-1.51,1,0,.49.94.85,2.39.85,3,0,3.9-2,3.08-7S96.79,218,95.34,218c-2,0-2.78,1.93-1.78,6.95C94.41,229.23,95.1,229.11,95.1,230.17Z"/><path class="cls-1" d="M107,225.87v-2.11c0-2.42,0-6.26-1.08-7h7.92c-1.09.72-1.09,4.56-1.09,7v1.84c0,2.18.18,4.2,2.11,4.2,1.64,0,2.06-1.81,2.15-3.77v-2.27c0-2.42,0-6.26-1.09-7h7.92c-1.09.72-1.09,4.56-1.09,7v2.45c0,2.41,0,6.25,1.09,7H117v-.79c0-1.75,2.63-2.14,2.63-3.08a.45.45,0,0,0-.51-.48c-.76,0-1.82,1.21-2.12,1.69a5.6,5.6,0,0,1-4.87,3.23C107.17,233.76,107,229.26,107,225.87Z"/><path class="cls-1" d="M126.09,226.21v-5.9a2.06,2.06,0,0,0-1.06-2.05l6.8-1.48v.78c0,1.76-2.62,2.15-2.62,3.08a.45.45,0,0,0,.51.49c.76,0,1.81-1.21,2.11-1.69a5.59,5.59,0,0,1,4.87-3.24c4.93,0,5.14,4.5,5.14,7.89v2.12c0,2.41,0,6.25,1.09,7H135c1.09-.73,1.09-4.57,1.09-7v-1.85c0-2.17-.18-4.2-2.12-4.2-1.63,0-2,1.81-2.15,3.78v2.27c0,2.41,0,6.25,1.09,7H125C126.09,232.46,126.09,228.62,126.09,226.21Z"/><path class="cls-1" d="M144,226.24c0-7.47,3.63-9.77,7.38-9.77a4.28,4.28,0,0,1,3.11,1.12v-2.3a2.07,2.07,0,0,0-1.06-2l6.8-1.48v14.45c0,2.41,0,6.25,1.09,7h-6.83v-.79c0-1.75,2.63-2.14,2.63-3.08a.45.45,0,0,0-.51-.48c-.73,0-1.7,1.08-2.06,1.6-1,1.84-2.51,3.23-4.66,3.23C145.47,233.67,144,229.56,144,226.24Zm8.34,3.56c1.64,0,2.06-1.81,2.15-3.77v-4.18c0-3.5-1.36-3.86-2.42-3.86-1.75,0-3.08,1.66-2.54,6.58C149.79,227.14,150.64,229.8,152.33,229.8Z"/><path class="cls-1" d="M170.69,216.53c0-3.65,4.05-5,8.1-5h0c4.05,0,7.37,1.75,7.37,5.2A3,3,0,0,1,183,219.8c-2.6,0-3.78-1.51-3.78-3.08,0-1.39,1.12-1.49,1.12-2.51,0-.76-.58-1.21-1.48-1.21-1.24,0-2.48.9-2.48,3.2,0,5.68,7.58,7.44,7.58,11.34a1.87,1.87,0,0,1-1.93,2.05c-2.84,0-4.78-2.81-6.83-2.81a1.62,1.62,0,0,0-1.6,1.72c0,2.21,2.57,3.54,5.41,3.54,4.8,0,6.35-2.93,6.35-5.17,0-3.69-3.18-3.08-3.18-4.87,0-1,1.09-1.3,2.48-1.3,4.69,0,5.32-.51,5.32-1.08,0-.79-1.33-.61-1.33-2.06,0-1.21.91-2.08,2.9-2.08a2.29,2.29,0,0,1,2.48,2.38c0,2-1.36,3.27-5.08,3.75a3.3,3.3,0,0,1,1.45,3c0,2.85-1.57,9-11.39,9h0c-5.32,0-10.07-3-10.07-7.46,0-1.73.82-3.54,3.27-3.54,3.78,0,7.22,5.56,9.67,5.56a.53.53,0,0,0,.6-.57C182.41,224.6,170.69,222.67,170.69,216.53Z"/><path class="cls-1" d="M202.64,226.21V215.29a2.07,2.07,0,0,0-1.06-2l6.8-1.48v5.8c0,1.76-2.62,2.15-2.62,3.08a.45.45,0,0,0,.51.49c.73,0,1.69-1.09,2.06-1.6,1-1.85,2.5-3.24,4.65-3.24,5,0,5.86,5.32,5.89,8.74v.15c-.09,5.68-3.62,8.31-7.37,8.31-1.36,0-2.51-.3-3.12-.3h-6.83C202.64,232.46,202.64,228.62,202.64,226.21ZM210.8,232c2.39,0,2.91-2,2.33-6.95-.33-2.54-1.06-4.87-2.6-4.87s-2.05,1.81-2.15,3.78v4.17C208.38,231.62,209.75,232,210.8,232Z"/><path class="cls-1" d="M219.78,225c0-5.84,3.81-8.53,8-8.53,3.24,0,6.29,1.58,6.53,4.36v.33c-.3,4.71-7.1,3.9-8.46,5.83.76,2.27,2.09,3.87,3.84,3.87a4.3,4.3,0,0,0,3.84-2.57h1.51a6.77,6.77,0,0,1-6.77,5.23C223.59,233.49,219.78,230.8,219.78,225Zm3.57,1.48a3.7,3.7,0,0,0,2.09-1.12c1.66-1.3,4.35-1.93,4.47-4.38-.06-1.42-.66-2.93-2.6-2.93-1.63,0-2.27,1.3-2.27,4.5,0,3.69-2.38,2.51-2.38,3.44C222.66,226.24,222.81,226.45,223.35,226.45Z"/><path class="cls-1" d="M236,225c0-5.84,3.81-8.53,8-8.53,3.23,0,6.29,1.58,6.53,4.36v.33c-.3,4.71-7.11,3.9-8.47,5.83.76,2.27,2.09,3.87,3.84,3.87a4.3,4.3,0,0,0,3.84-2.57h1.51a6.76,6.76,0,0,1-6.77,5.23C239.77,233.49,236,230.8,236,225Zm3.57,1.48a3.68,3.68,0,0,0,2.08-1.12c1.66-1.3,4.35-1.93,4.47-4.38-.06-1.42-.66-2.93-2.59-2.93-1.64,0-2.27,1.3-2.27,4.5,0,3.69-2.39,2.51-2.39,3.44C238.83,226.24,239,226.45,239.53,226.45Z"/><path class="cls-1" d="M253.37,226.21v-5.9a2.06,2.06,0,0,0-1.06-2.05l6.81-1.48v.78c0,1.76-2.63,2.15-2.63,3.08a.45.45,0,0,0,.51.49c.76,0,1.81-1.21,2.12-1.66a5.61,5.61,0,0,1,4.95-3.27h2.45v2.24c0,1.63-.3,3.56-2.63,3.56-2,0-1.09-1.84-2.57-1.84-1.69,0-2.11,1.81-2.2,3.78v2.27c0,2.41,0,6.25,1.08,7h-7.92C253.37,232.46,253.37,228.62,253.37,226.21Z"/><path class="cls-1" d="M274.72,226.21V215.54c0-3.27,2-3.87,5.71-3.87h3.93v1.57c0,1.57-.57,2.54-2.48,2.54-2.45,0-2.11-2.51-3.44-2.51-.4,0-.61.15-.61.54,0,.88,2.63,1.15,2.63,3v0h2.69v1.51h-2.69v7.86c0,2.41,0,6.25,1.09,7h-7.92C274.72,232.46,274.72,228.62,274.72,226.21Z"/><path class="cls-1" d="M283.76,225c0-5.84,3.81-8.53,8-8.53,3.23,0,6.28,1.58,6.53,4.36v.33c-.31,4.71-7.11,3.9-8.47,5.83.76,2.27,2.09,3.87,3.84,3.87a4.3,4.3,0,0,0,3.84-2.57H299a6.76,6.76,0,0,1-6.77,5.23C287.57,233.49,283.76,230.8,283.76,225Zm3.56,1.48a3.7,3.7,0,0,0,2.09-1.12c1.66-1.3,4.35-1.93,4.47-4.38-.06-1.42-.66-2.93-2.6-2.93-1.63,0-2.26,1.3-2.26,4.5,0,3.69-2.39,2.51-2.39,3.44C286.63,226.24,286.78,226.45,287.32,226.45Z"/><path class="cls-1" d="M306.49,233.43c-3.84,0-6.41-1.78-6.41-4.29,0-2.36,1.88-2.63,3.18-2.63,3.11,0,3.41,2.05,3.41,2.6,0,2.54-2.42.72-2.42,2,0,.49,1,.73,2.24.73,1.81,0,2.84-.61,2.84-2,0-3.9-8.49-3.59-8.49-8.94,0-3.36,3.6-4.42,7.34-4.42,4,0,6.35,1.33,6.35,4a2.3,2.3,0,0,1-2.48,2.39c-2,0-2.9-1.15-2.9-2.36s.85-1.15.85-1.93c0-.57-.64-.94-1.82-.94a2.14,2.14,0,0,0-2.35,2.06c0,4.38,8.85,3.47,8.85,9,0,3.44-3.78,4.68-8.16,4.68Z"/><path class="cls-1" d="M316.44,227.45v-9.16h-1.06v-1.51c2.75,0,3.48-4.3,5.59-4.3h1.21V215c0,1.76-2.63,2.15-2.63,3.08a.46.46,0,0,0,.52.49c.75,0,1.81-1.21,2.11-1.69h2.09v1.51h-2.09v8.73c0,2.48.24,4.6,2.09,4.6v1.51h-.85C316.92,233.19,316.44,231.41,316.44,227.45Z"/><path class="cls-1" d="M325.48,227.72c0-4.45,3.63-6.74,7.37-6.74a4.35,4.35,0,0,1,3.15,1.15v-.79c0-1.78-.49-3.6-3.3-3.6-.54,0-1.36.09-1.36.73s.82.42.82,1.33-.88,1.36-2.87,1.36c-1.82,0-2.48-.94-2.48-1.79,0-1.9,2.27-2.78,5.89-2.78,7.41,0,9,3.54,9,6.65v3c0,2.41,0,6.25,1.09,7h-6.56v-.51c0-2.21,2.63-2.15,2.63-3.09a.45.45,0,0,0-.51-.48c-.67,0-1.67,1.06-2.09,1.54a5.56,5.56,0,0,1-4.93,3C327.14,233.67,325.48,230.89,325.48,227.72Zm8.4,2.08c1.39,0,2.12-1.69,2.12-3.56v-.15c0-3.51-2.09-3.6-2.63-3.6-1.66,0-2.51,2.14-2.24,4.65C331.34,229.11,332.34,229.8,333.88,229.8Z"/></svg>